<svg xmlns="http://www.w3.org/2000/svg" width="64" height="64" viewBox="0 0 64 64">
  <g id="EditProfile" transform="translate(-2 -6)">
    <rect id="Rectangle_1478" data-name="Rectangle 1478" width="64" height="64" rx="25" transform="translate(2 6)" fill="#cee5d0"/>
    <path id="Icon_awesome-user-edit" data-name="Icon awesome-user-edit" d="M10.5,10.5c3.314,0,6-2.35,6-5.25S13.815,0,10.5,0s-6,2.35-6,5.25S7.186,10.5,10.5,10.5Zm4.2,1.312h-.783a9.226,9.226,0,0,1-6.835,0H6.3c-3.478,0-6.3,2.469-6.3,5.512v1.706A2.124,2.124,0,0,0,2.25,21H15.137a1.741,1.741,0,0,1-.122-.874l.319-2.5.056-.455.37-.324,3.624-3.17A6.644,6.644,0,0,0,14.7,11.812Zm2.124,5.959-.319,2.5A.7.7,0,0,0,17.33,21l2.855-.279,6.464-5.656L23.288,12.12l-6.464,5.652Zm12.849-6.743L27.9,9.474a1.24,1.24,0,0,0-1.584,0l-1.772,1.55-.192.168,3.366,2.941,1.959-1.714a.9.9,0,0,0,0-1.39Z" transform="translate(22.5 27)"/>
  </g>
</svg>
