<svg width="65" height="64" xmlns="http://www.w3.org/2000/svg" xmlns:xlink="http://www.w3.org/1999/xlink" xmlns:svgjs="http://svgjs.com/svgjs" viewBox="28 621 65 64"><svg width="65" height="64" xmlns="http://www.w3.org/2000/svg" xmlns:xlink="http://www.w3.org/1999/xlink" xmlns:svgjs="http://svgjs.com/svgjs" viewBox="0.5 0 64 64" fill="#cee5d0" x="28" y="621"><svg xmlns="http://www.w3.org/2000/svg" xmlns:xlink="http://www.w3.org/1999/xlink" width="65" height="64" viewBox="0.118 0 64 64"><path paint-order="stroke fill markers" fill-rule="evenodd" d="M25.118 0h14c13.825 0 25 11.175 25 25v14c0 13.825-11.175 25-25 25h-14c-13.825 0-25-11.175-25-25V25c0-13.825 11.175-25 25-25z"/></svg></svg><svg width="31" height="22" xmlns="http://www.w3.org/2000/svg" xmlns:xlink="http://www.w3.org/1999/xlink" xmlns:svgjs="http://svgjs.com/svgjs" viewBox="45 642 31 22" x="45" y="642"><svg width="31" height="22" xmlns="http://www.w3.org/2000/svg" xmlns:xlink="http://www.w3.org/1999/xlink" xmlns:svgjs="http://svgjs.com/svgjs" viewBox="0 0.15 31 21.7" fill="none" stroke-miterlimit="100" stroke-linecap="round" stroke="#000" stroke-width="3" x="45" y="642"><svg xmlns="http://www.w3.org/2000/svg" xmlns:xlink="http://www.w3.org/1999/xlink" width="31" height="22" viewBox="0.118 0.5 30 21"><path paint-order="stroke fill markers" d="M2.845.5H27.39c1.507 0 2.728 1.175 2.728 2.625v15.75c0 1.45-1.221 2.625-2.728 2.625H2.845c-1.506 0-2.727-1.175-2.727-2.625V3.125C.118 1.675 1.338.5 2.845.5c0 0 0 0 0 0z"/></svg></svg><svg width="31" height="0" xmlns="http://www.w3.org/2000/svg" xmlns:xlink="http://www.w3.org/1999/xlink" xmlns:svgjs="http://svgjs.com/svgjs" fill="none" stroke-miterlimit="100" stroke-linecap="round" stroke="#000" stroke-width="3" x="45" y="650"><svg xmlns="http://www.w3.org/2000/svg" width="31" height="0"><path paint-order="stroke fill markers" d="M.118.375h0"/></svg></svg></svg></svg>