<svg xmlns="http://www.w3.org/2000/svg" width="64" height="64" viewBox="0 0 64 64">
  <g id="Group_607" data-name="Group 607" transform="translate(-6 -6)">
    <rect id="Rectangle_1478" data-name="Rectangle 1478" width="64" height="64" rx="25" transform="translate(6 6)" fill="#cee5d0"/>
    <g id="Icon_feather-package" data-name="Icon feather-package" transform="translate(26 24)">
      <path id="Path_244" data-name="Path 244" d="M21.75,14.1,11.25,6.315" transform="translate(-4.5 -3.003)" fill="none" stroke="#000" stroke-linecap="round" stroke-linejoin="round" stroke-width="3"/>
      <path id="Path_245" data-name="Path 245" d="M28.5,21.9V11.1a2.707,2.707,0,0,0-1.333-2.336l-9.333-5.4a2.638,2.638,0,0,0-2.667,0l-9.333,5.4A2.707,2.707,0,0,0,4.5,11.1V21.9a2.707,2.707,0,0,0,1.333,2.336l9.333,5.4a2.638,2.638,0,0,0,2.667,0l9.333-5.4A2.707,2.707,0,0,0,28.5,21.9Z" transform="translate(-4.5 -3.003)" fill="none" stroke="#000" stroke-linecap="round" stroke-linejoin="round" stroke-width="3"/>
      <path id="Path_246" data-name="Path 246" d="M4.905,10.44,16.5,18.015,28.095,10.44" transform="translate(-4.5 -3.992)" fill="none" stroke="#000" stroke-linecap="round" stroke-linejoin="round" stroke-width="3"/>
      <path id="Path_247" data-name="Path 247" d="M18,33.12V18" transform="translate(-6 -6)" fill="none" stroke="#000" stroke-linecap="round" stroke-linejoin="round" stroke-width="3"/>
    </g>
  </g>
</svg>
